<?xml version="1.0" standalone="no"?>
<!DOCTYPE svg PUBLIC "-//W3C//DTD SVG 20010904//EN"
 "http://www.w3.org/TR/2001/REC-SVG-20010904/DTD/svg10.dtd">
<svg version="1.0" xmlns="http://www.w3.org/2000/svg"
 width="300.000000pt" height="300.000000pt" viewBox="0 0 300.000000 300.000000"
 preserveAspectRatio="xMidYMid meet">
<metadata>
Created by potrace 1.11, written by Peter Selinger 2001-2013
</metadata>
<g transform="translate(0.000000,300.000000) scale(0.100000,-0.100000)"
fill="#000000" stroke="none">
<path d="M1310 2250 c-19 -19 -24 -36 -20 -73 1 -11 -11 -23 -34 -32 -36 -15
-39 -21 -37 -60 0 -14 -16 -31 -55 -55 -117 -74 -205 -186 -238 -302 -52 -184
-35 -347 74 -743 22 -77 42 -154 45 -172 12 -73 33 -102 95 -127 25 -10 52
-21 60 -25 8 -4 72 -7 143 -6 l127 2 0 -56 -1 -56 -46 -22 c-42 -20 -49 -20
-74 -7 -43 22 -110 18 -150 -9 -87 -59 -113 -211 -47 -283 17 -19 17 -23 2
-59 -8 -21 -16 -66 -17 -99 l-2 -61 63 -3 c62 -3 62 -3 63 25 1 41 6 64 17 75
7 7 9 -10 8 -46 l-2 -56 342 0 c265 0 343 3 346 13 2 6 4 29 3 49 -1 46 7 40
20 -15 l11 -42 66 -3 c63 -3 66 -2 70 22 3 13 -1 41 -7 60 -7 20 -11 36 -9 36
2 0 -8 21 -21 47 l-25 46 21 45 c28 57 32 138 9 189 -21 47 -75 103 -100 103
-10 0 -21 4 -24 9 -9 14 -102 5 -135 -15 -29 -17 -32 -17 -60 -1 -26 15 -56
24 -87 26 -12 1 -40 118 -31 128 4 3 59 23 122 44 173 58 158 41 151 177 -4
65 -8 131 -10 147 -9 69 -18 186 -21 270 -13 304 -35 434 -98 565 -52 111
-151 194 -254 215 -18 4 -39 15 -46 25 -11 16 -34 24 -79 29 -5 1 -8 12 -8 26
0 14 -11 37 -25 50 -29 30 -68 32 -95 5z"/>
</g>
</svg>
